<svg width="18" height="16" viewBox="0 0 18 16" fill="none" xmlns="http://www.w3.org/2000/svg">
<path id="Vector" d="M16 1.5906H15V0H13V1.5906H5V0H3V1.5906H2C0.89 1.5906 0.00999999 2.30637 0.00999999 3.18119L0 14.3154C0 14.7372 0.210714 15.1418 0.585786 15.4401C0.960859 15.7384 1.46957 15.906 2 15.906H16C17.1 15.906 18 15.1902 18 14.3154V3.18119C18 2.30637 17.1 1.5906 16 1.5906ZM16 14.3154H2V6.36239H16V14.3154ZM6 9.54358H4V7.95299H6V9.54358ZM10 9.54358H8V7.95299H10V9.54358ZM14 9.54358H12V7.95299H14V9.54358ZM6 12.7248H4V11.1342H6V12.7248ZM10 12.7248H8V11.1342H10V12.7248ZM14 12.7248H12V11.1342H14V12.7248Z" fill="#074E16"/>
</svg>
