<svg width="25" height="24" viewBox="0 0 25 24" fill="none" xmlns="http://www.w3.org/2000/svg">
<g id="akar-icons:facebook-fill" clip-path="url(#clip0_1013_418)">
<g id="Group">
<g id="Group_2">
<path id="Vector" fill-rule="evenodd" clip-rule="evenodd" d="M0.619141 12.067C0.619141 18.033 4.93954 22.994 10.5901 24V15.333H7.59879V12H10.5901V9.333C10.5901 6.333 12.5175 4.667 15.2435 4.667C16.107 4.667 17.0383 4.8 17.9018 4.933V8H16.3732C14.9105 8 14.5784 8.733 14.5784 9.667V12H17.7691L17.2377 15.333H14.5784V24C20.229 22.994 24.5494 18.034 24.5494 12.067C24.5494 5.43 19.1651 0 12.5843 0C6.00344 0 0.619141 5.43 0.619141 12.067Z" fill="white"/>
</g>
</g>
</g>
<defs>
<clipPath id="clip0_1013_418">
<rect width="23.9302" height="24" fill="white" transform="translate(0.619141)"/>
</clipPath>
</defs>
</svg>
