<svg width="25" height="24" viewBox="0 0 25 24" fill="none" xmlns="http://www.w3.org/2000/svg">
<g id="akar-icons:google-contained-fill" clip-path="url(#clip0_1039_422)">
<g id="Group">
<g id="Group_2">
<path id="Vector" fill-rule="evenodd" clip-rule="evenodd" d="M12.4158 0C5.80707 0 0.450684 5.373 0.450684 12C0.450684 18.627 5.80707 24 12.4158 24C19.0235 24 24.3809 18.627 24.3809 12C24.3809 5.373 19.0235 0 12.4158 0ZM12.5554 19.018C8.69864 19.018 5.57574 15.878 5.57574 12C5.57574 8.122 8.69864 4.982 12.5554 4.982C14.4399 4.982 16.0153 5.679 17.2238 6.811L15.2555 8.789V8.785C14.5227 8.083 13.5934 7.723 12.5554 7.723C10.2521 7.723 8.38056 9.679 8.38056 11.996C8.38056 14.311 10.2521 16.273 12.5554 16.273C14.6453 16.273 16.0672 15.071 16.3603 13.421H12.5554V10.684H19.1213C19.209 11.154 19.2559 11.644 19.2559 12.158C19.2559 16.168 16.5866 19.018 12.5554 19.018Z" fill="white"/>
</g>
</g>
</g>
<defs>
<clipPath id="clip0_1039_422">
<rect width="23.9302" height="24" fill="white" transform="translate(0.450684)"/>
</clipPath>
</defs>
</svg>
