<svg width="32" height="32" viewBox="0 0 32 32" fill="none" xmlns="http://www.w3.org/2000/svg">
<g id="mdi:bell-badge">
<path id="Vector" d="M28 8.66651C28 11.2398 25.9067 13.3332 23.3333 13.3332C20.76 13.3332 18.6667 11.2398 18.6667 8.66651C18.6667 6.09318 20.76 3.99984 23.3333 3.99984C25.9067 3.99984 28 6.09318 28 8.66651ZM25.3333 15.7198C24.6667 15.8932 24 15.9998 23.3333 15.9998C21.3895 15.9963 19.5263 15.2226 18.1518 13.8481C16.7773 12.4736 16.0035 10.6103 16 8.66651C16 6.70651 16.7733 4.93318 18 3.61318C17.758 3.31657 17.4529 3.07767 17.1069 2.9139C16.761 2.75013 16.3828 2.66562 16 2.66651C14.5333 2.66651 13.3333 3.86651 13.3333 5.33318V5.71984C9.37333 6.89318 6.66667 10.5332 6.66667 14.6665V22.6665L4 25.3332V26.6665H28V25.3332L25.3333 22.6665V15.7198ZM16 30.6665C17.48 30.6665 18.6667 29.4798 18.6667 27.9998H13.3333C13.3333 28.7071 13.6143 29.3854 14.1144 29.8855C14.6145 30.3856 15.2928 30.6665 16 30.6665Z" fill="#074E16"/>
</g>
</svg>
