<svg width="20" height="20" viewBox="0 0 20 20" fill="none" xmlns="http://www.w3.org/2000/svg">
<g id="fa-solid:cart-arrow-down" clip-path="url(#clip0_67_153)">
<path id="Vector" d="M17.5249 12.5H7.34625L7.57351 13.75H16.8936C17.4283 13.75 17.8247 14.3086 17.7062 14.8953L17.5146 15.8436C18.1636 16.198 18.6111 16.9464 18.6111 17.8125C18.6111 19.0313 17.725 20.0173 16.6381 19.9998C15.6025 19.983 14.7509 19.0376 14.723 17.8729C14.7077 17.2367 14.9342 16.6601 15.3064 16.25H8.02695C8.38726 16.6471 8.61111 17.2002 8.61111 17.8125C8.61111 19.0552 7.69 20.0559 6.57396 19.9976C5.58299 19.9458 4.77705 19.045 4.72497 17.9305C4.68476 17.0698 5.08733 16.3112 5.69896 15.9154L3.25983 2.5H0.833333C0.37309 2.5 0 2.08027 0 1.5625V0.9375C0 0.419727 0.37309 0 0.833333 0H4.39337C4.78924 0 5.13045 0.31332 5.20979 0.749609L5.52806 2.5H19.1663C19.7011 2.5 20.0974 3.05863 19.9789 3.64527L18.3375 11.7703C18.2513 12.1971 17.914 12.5 17.5249 12.5ZM13.9941 7.5H12.5V5.15625C12.5 4.89738 12.3134 4.6875 12.0833 4.6875H11.25C11.0199 4.6875 10.8333 4.89738 10.8333 5.15625V7.5H9.33927C8.96806 7.5 8.78215 8.00492 9.04465 8.3002L11.372 10.9185C11.5348 11.1016 11.7986 11.1016 11.9613 10.9185L14.2887 8.3002C14.5512 8.00492 14.3653 7.5 13.9941 7.5Z" fill="#074E16"/>
</g>
<defs>
<clipPath id="clip0_67_153">
<rect width="20" height="20" fill="white"/>
</clipPath>
</defs>
</svg>
