<svg width="32" height="32" viewBox="0 0 32 32" fill="none" xmlns="http://www.w3.org/2000/svg">
<path id="Vector" d="M22.2437 0.00124872C16.8554 0.00124872 12.4873 2.41005 12.4873 5.38578C12.4873 8.36151 16.8566 10.7716 22.2437 10.7716C27.6319 10.7716 32 8.36151 32 5.38578C32 2.41005 27.6307 0 22.2437 0V0.00124872ZM32 6.98541C31.9975 9.96113 27.6319 12.3712 22.2437 12.3712C16.8704 12.3712 12.5123 9.98736 12.4873 7.02537V9.13198C12.4873 10.4032 13.3015 11.567 14.6351 12.4886C15.9838 12.8557 17.185 13.3652 18.1853 14.0095C19.4253 14.3242 20.7889 14.5165 22.2437 14.5165C27.6319 14.5165 32 12.1077 32 9.13198V6.98541ZM32 10.7316C32 13.7073 27.6319 16.1174 22.2437 16.1174C21.5881 16.1174 20.9512 16.0687 20.3319 16C20.8206 16.6582 21.154 17.4186 21.3071 18.224C21.618 18.2415 21.9252 18.2627 22.2437 18.2627C27.6319 18.2627 32 15.8539 32 12.8782V10.7316ZM9.75634 13.736C4.36806 13.736 0 16.1461 0 19.1218C0 22.0976 4.36931 24.5076 9.75634 24.5076C15.1446 24.5076 19.5127 22.0976 19.5127 19.1218C19.5127 16.1461 15.1434 13.736 9.75634 13.736ZM32 14.4778C31.9975 17.4535 27.6319 19.8636 22.2437 19.8636C21.9302 19.8636 21.613 19.8411 21.3071 19.8236C21.2934 19.9173 21.2859 20.0421 21.2684 20.1358C21.3308 20.3244 21.3845 20.5104 21.3845 20.7227V21.9714C21.668 21.9852 21.9527 22.0089 22.2437 22.0089C27.6319 22.0089 32 19.6001 32 16.6244V14.4778ZM32 18.224C31.9975 21.1997 27.6319 23.6098 22.2437 23.6098C21.9302 23.6098 21.613 23.5873 21.3071 23.5698C21.2934 23.6635 21.2859 23.7883 21.2684 23.882C21.3308 24.0693 21.3845 24.2566 21.3845 24.4689V25.7176C21.668 25.7314 21.9527 25.7551 22.2437 25.7551C27.6319 25.7551 32 23.3463 32 20.3706V18.224ZM19.5127 20.7215C19.5102 23.6972 15.1446 26.1072 9.75634 26.1072C4.38305 26.1072 0.0249746 23.7234 0 20.7602V22.868C0 25.8438 4.36682 28.2538 9.75634 28.2538C15.1459 28.2538 19.5127 25.8438 19.5127 22.868V20.7215ZM19.5127 24.4676C19.5102 27.4434 15.1446 29.8534 9.75634 29.8534C4.38305 29.8534 0.0249746 27.4696 0 24.5064V26.6142C0 29.5899 4.36682 32 9.75634 32C15.1459 32 19.5127 29.5899 19.5127 26.6142V24.4676Z" fill="#E19336"/>
</svg>
