<svg width="20" height="20" viewBox="0 0 20 20" fill="none" xmlns="http://www.w3.org/2000/svg">
<g id="Group">
<path id="Vector" d="M6.15381 8.84612C6.15381 8.49256 6.22345 8.14246 6.35875 7.81581C6.49405 7.48917 6.69236 7.19237 6.94237 6.94237C7.19237 6.69236 7.48917 6.49405 7.81581 6.35875C8.14246 6.22345 8.49256 6.15381 8.84612 6.15381C9.19968 6.15381 9.54977 6.22345 9.87642 6.35875C10.2031 6.49405 10.4999 6.69236 10.7499 6.94237C10.9999 7.19237 11.1982 7.48917 11.3335 7.81581C11.4688 8.14246 11.5384 8.49256 11.5384 8.84612C11.5384 9.56016 11.2548 10.245 10.7499 10.7499C10.245 11.2548 9.56016 11.5384 8.84612 11.5384C8.13207 11.5384 7.44727 11.2548 6.94237 10.7499C6.43746 10.245 6.15381 9.56016 6.15381 8.84612Z" fill="#074E16"/>
<path id="Vector_2" fill-rule="evenodd" clip-rule="evenodd" d="M10 0C4.47692 0 0 4.47692 0 10C0 15.5231 4.47692 20 10 20C15.5231 20 20 15.5231 20 10C20 4.47692 15.5231 0 10 0ZM8.84615 4.61539C8.18317 4.61552 7.5295 4.77146 6.93785 5.07063C6.3462 5.3698 5.83315 5.80383 5.44006 6.33772C5.04698 6.8716 4.78487 7.49039 4.67486 8.14419C4.56486 8.79798 4.61005 9.46848 4.80679 10.1016C5.00352 10.7347 5.3463 11.3128 5.80747 11.7891C6.26864 12.2654 6.83529 12.6266 7.46173 12.8437C8.08817 13.0608 8.75686 13.1276 9.41386 13.0388C10.0709 12.9499 10.6978 12.7079 11.2441 12.3323L13.3026 14.3897C13.373 14.4653 13.4579 14.5259 13.5523 14.568C13.6466 14.61 13.7485 14.6326 13.8518 14.6345C13.9551 14.6363 14.0577 14.6173 14.1534 14.5786C14.2492 14.5399 14.3362 14.4823 14.4093 14.4093C14.4823 14.3362 14.5399 14.2492 14.5786 14.1534C14.6173 14.0577 14.6363 13.9551 14.6345 13.8518C14.6326 13.7485 14.61 13.6466 14.568 13.5523C14.5259 13.4579 14.4653 13.373 14.3897 13.3026L12.3323 11.2441C12.7693 10.6089 13.0244 9.86625 13.0701 9.09655C13.1157 8.32684 12.9501 7.5593 12.5912 6.87686C12.2323 6.19442 11.6937 5.62304 11.0337 5.22447C10.3736 4.82589 9.61721 4.61528 8.84615 4.61539Z" fill="#074E16"/>
</g>
</svg>
