<svg width="32" height="32" viewBox="0 0 32 32" fill="none" xmlns="http://www.w3.org/2000/svg">
<g id="ph:address-book-light">
<g id="Group 81">
<path id="Vector" d="M19.8875 17.763C20.4683 17.3231 20.939 16.7542 21.2622 16.1013C21.5854 15.4483 21.7524 14.7291 21.75 14.0005C21.75 12.7407 21.2496 11.5325 20.3588 10.6417C19.468 9.75093 18.2598 9.25049 17 9.25049C15.7402 9.25049 14.532 9.75093 13.6412 10.6417C12.7504 11.5325 12.25 12.7407 12.25 14.0005C12.2476 14.7291 12.4146 15.4483 12.7378 16.1013C13.061 16.7542 13.5317 17.3231 14.1125 17.763C12.635 18.3201 11.3472 19.2871 10.4 20.5505C10.2807 20.7096 10.2294 20.9096 10.2575 21.1066C10.2857 21.3035 10.3909 21.4811 10.55 21.6005C10.7091 21.7198 10.9092 21.7711 11.1061 21.743C11.303 21.7148 11.4807 21.6096 11.6 21.4505C12.2287 20.6122 13.044 19.9317 13.9813 19.4631C14.9186 18.9945 15.9521 18.7505 17 18.7505C18.0479 18.7505 19.0814 18.9945 20.0187 19.4631C20.956 19.9317 21.7713 20.6122 22.4 21.4505C22.4591 21.5293 22.5331 21.5957 22.6179 21.6458C22.7026 21.696 22.7964 21.729 22.8939 21.743C22.9914 21.7569 23.0907 21.7515 23.1861 21.727C23.2815 21.7026 23.3712 21.6596 23.45 21.6005C23.5288 21.5414 23.5952 21.4674 23.6454 21.3826C23.6955 21.2979 23.7285 21.2041 23.7425 21.1066C23.7564 21.0091 23.751 20.9098 23.7265 20.8144C23.7021 20.7189 23.6591 20.6293 23.6 20.5505C22.6528 19.2871 21.365 18.3201 19.8875 17.763ZM13.75 14.0005C13.75 13.3577 13.9406 12.7293 14.2977 12.1949C14.6548 11.6604 15.1624 11.2439 15.7563 10.9979C16.3501 10.7519 17.0036 10.6875 17.634 10.8129C18.2645 10.9383 18.8436 11.2479 19.2981 11.7024C19.7526 12.1569 20.0621 12.736 20.1876 13.3664C20.313 13.9969 20.2486 14.6503 20.0026 15.2442C19.7566 15.8381 19.3401 16.3456 18.8056 16.7028C18.2711 17.0599 17.6428 17.2505 17 17.2505C16.1391 17.2472 15.3143 16.9037 14.7055 16.2949C14.0968 15.6862 13.7533 14.8614 13.75 14.0005ZM26 3.25049H8C7.53587 3.25049 7.09075 3.43486 6.76256 3.76305C6.43437 4.09124 6.25 4.53636 6.25 5.00049V7.75049H4C3.80109 7.75049 3.61032 7.82951 3.46967 7.97016C3.32902 8.11081 3.25 8.30158 3.25 8.50049C3.25 8.6994 3.32902 8.89017 3.46967 9.03082C3.61032 9.17147 3.80109 9.25049 4 9.25049H6.25V12.7505H4C3.80109 12.7505 3.61032 12.8295 3.46967 12.9702C3.32902 13.1108 3.25 13.3016 3.25 13.5005C3.25 13.6994 3.32902 13.8902 3.46967 14.0308C3.61032 14.1715 3.80109 14.2505 4 14.2505H6.25V17.7505H4C3.80109 17.7505 3.61032 17.8295 3.46967 17.9702C3.32902 18.1108 3.25 18.3016 3.25 18.5005C3.25 18.6994 3.32902 18.8902 3.46967 19.0308C3.61032 19.1715 3.80109 19.2505 4 19.2505H6.25V22.7505H4C3.80109 22.7505 3.61032 22.8295 3.46967 22.9702C3.32902 23.1108 3.25 23.3016 3.25 23.5005C3.25 23.6994 3.32902 23.8902 3.46967 24.0308C3.61032 24.1715 3.80109 24.2505 4 24.2505H6.25V27.0005C6.25 27.4646 6.43437 27.9097 6.76256 28.2379C7.09075 28.5661 7.53587 28.7505 8 28.7505H26C26.4641 28.7505 26.9092 28.5661 27.2374 28.2379C27.5656 27.9097 27.75 27.4646 27.75 27.0005V5.00049C27.75 4.53636 27.5656 4.09124 27.2374 3.76305C26.9092 3.43486 26.4641 3.25049 26 3.25049ZM26.25 27.0005C26.25 27.0668 26.2237 27.1304 26.1768 27.1773C26.1299 27.2241 26.0663 27.2505 26 27.2505H8C7.9337 27.2505 7.87011 27.2241 7.82322 27.1773C7.77634 27.1304 7.75 27.0668 7.75 27.0005V5.00049C7.75 4.93418 7.77634 4.8706 7.82322 4.82371C7.87011 4.77683 7.9337 4.75049 8 4.75049H26C26.0663 4.75049 26.1299 4.77683 26.1768 4.82371C26.2237 4.8706 26.25 4.93418 26.25 5.00049V27.0005Z" fill="#074E16"/>
</g>
</g>
</svg>
