<svg width="32" height="32" viewBox="0 0 32 32" fill="none" xmlns="http://www.w3.org/2000/svg">
<g id="mdi:book-sync-outline">
<path id="Vector" d="M18.0002 26.667C18.4135 27.667 19.0135 28.5603 19.7602 29.3337H8.00016C6.52016 29.3337 5.3335 28.147 5.3335 26.667V5.33366C5.3335 4.62641 5.61445 3.94814 6.11454 3.44804C6.61464 2.94794 7.29292 2.66699 8.00016 2.66699H24.0002C24.7074 2.66699 25.3857 2.94794 25.8858 3.44804C26.3859 3.94814 26.6668 4.62641 26.6668 5.33366V14.707C26.4535 14.667 26.2268 14.667 26.0002 14.667C25.3335 14.667 24.6668 14.7603 24.0002 14.907V5.33366H17.3335V16.0003L14.0002 13.0003L10.6668 16.0003V5.33366H8.00016V26.667H18.0002ZM25.3335 26.667C24.4494 26.667 23.6016 26.3158 22.9765 25.6907C22.3514 25.0656 22.0002 24.2177 22.0002 23.3337C22.0002 22.8003 22.1202 22.2937 22.3468 21.8403L20.8935 20.387C20.3335 21.227 20.0002 22.2403 20.0002 23.3337C20.0002 26.2803 22.3868 28.667 25.3335 28.667V30.667L28.3335 27.667L25.3335 24.667V26.667ZM25.3335 18.0003V16.0003L22.3335 19.0003L25.3335 22.0003V20.0003C26.2176 20.0003 27.0654 20.3515 27.6905 20.9766C28.3156 21.6018 28.6668 22.4496 28.6668 23.3337C28.6668 23.867 28.5468 24.3737 28.3202 24.827L29.7735 26.2803C30.3335 25.4403 30.6668 24.427 30.6668 23.3337C30.6668 20.387 28.2802 18.0003 25.3335 18.0003Z" fill="#074E16"/>
</g>
</svg>
