<?xml version="1.0" encoding="UTF-8" standalone="no"?>
<svg
   width="32"
   height="32"
   viewBox="0 0 32 32"
   fill="none"
   version="1.1"
   id="svg1"
   sodipodi:docname="book-plus-icon - Copy.svg"
   inkscape:version="1.3 (0e150ed6c4, 2023-07-21)"
   xmlns:inkscape="http://www.inkscape.org/namespaces/inkscape"
   xmlns:sodipodi="http://sodipodi.sourceforge.net/DTD/sodipodi-0.dtd"
   xmlns="http://www.w3.org/2000/svg"
   xmlns:svg="http://www.w3.org/2000/svg">
  <defs
     id="defs1" />
  <sodipodi:namedview
     id="namedview1"
     pagecolor="#ffffff"
     bordercolor="#000000"
     borderopacity="0.25"
     inkscape:showpageshadow="2"
     inkscape:pageopacity="0.0"
     inkscape:pagecheckerboard="0"
     inkscape:deskcolor="#d1d1d1"
     inkscape:zoom="25.40625"
     inkscape:cx="16"
     inkscape:cy="16"
     inkscape:window-width="1920"
     inkscape:window-height="1009"
     inkscape:window-x="-8"
     inkscape:window-y="-8"
     inkscape:window-maximized="1"
     inkscape:current-layer="svg1" />
  <g
     id="mdi:book-plus-outline">
    <path
       id="Vector"
       d="M17.4535 26.667C17.6135 27.627 17.9468 28.5203 18.4135 29.3337H8.00016C6.52016 29.3337 5.3335 28.147 5.3335 26.667V5.33366C5.3335 4.62641 5.61445 3.94814 6.11454 3.44804C6.61464 2.94794 7.29292 2.66699 8.00016 2.66699H24.0002C24.7074 2.66699 25.3857 2.94794 25.8858 3.44804C26.3859 3.94814 26.6668 4.62641 26.6668 5.33366V17.4537C26.2268 17.387 25.7868 17.3337 25.3335 17.3337C24.8802 17.3337 24.4402 17.387 24.0002 17.4537V5.33366H17.3335V16.0003L14.0002 13.0003L10.6668 16.0003V5.33366H8.00016V26.667H17.4535ZM26.6668 24.0003V20.0003H24.0002V24.0003H20.0002V26.667H24.0002V30.667H26.6668V26.667H30.6668V24.0003H26.6668Z"
       fill="#074E16"
       style="fill:#ff772b;fill-opacity:1" />
  </g>
</svg>
