<svg width="159" height="160" viewBox="0 0 159 160" fill="none" xmlns="http://www.w3.org/2000/svg">
<path id="Vector" d="M158.243 139.896L148.358 127.467L151.707 113.448C152.301 110.995 150.087 108.784 147.602 109.35C144.226 110.159 141.714 113.017 141.417 116.467C141.255 118.436 141.174 120.485 140.985 122.399L140.877 122.426C139.958 120.943 138.851 119.271 137.663 117.519C135.637 114.499 131.964 113.07 128.425 113.906L122.754 115.47C112.247 118.166 101.254 119.514 89.3435 119.514C69.951 119.514 54.0157 112.343 52.4492 99.5365H141.228C142.173 95.4656 143.091 87.6741 143.091 77.3754C143.064 32.4599 121.511 0 76.4872 0C25.8453 0 0.834961 41.4915 0.834961 82.0664C0.834961 130.433 29.5995 159.469 80.8626 159.469C97.9053 159.469 115.704 157.312 131.126 152.055V152.109L132.936 151.435C133.611 151.192 134.286 150.976 134.962 150.734V150.68L136.231 150.194C139.904 149.332 142.605 146.177 142.875 142.403C143.01 140.597 143.199 138.683 143.334 136.795L143.443 136.768C144.388 138.332 145.36 139.95 146.413 141.486C148.574 144.749 152.545 146.312 156.353 145.423C158.784 144.829 159.81 141.891 158.243 139.896ZM73.6782 36.2074C89.9377 36.2074 93.6919 52.4373 93.6919 63.0596H51.7739C52.4222 52.1138 58.3371 36.2074 73.6782 36.2074ZM133.368 141.891L130.37 125.014L135.772 131.08L133.368 141.891Z" fill="url(#paint0_linear_293_245)"/>
<defs>
<linearGradient id="paint0_linear_293_245" x1="22.6596" y1="48.6165" x2="155.688" y2="128.269" gradientUnits="userSpaceOnUse">
<stop stop-color="#7AC259"/>
<stop offset="1" stop-color="#1A4E26"/>
</linearGradient>
</defs>
</svg>
