<?xml version="1.0" encoding="UTF-8" standalone="no"?>
<svg
   width="162"
   height="160"
   viewBox="0 0 162 160"
   fill="none"
   version="1.1"
   id="svg8"
   sodipodi:docname="logo.svg"
   inkscape:version="1.3 (0e150ed6c4, 2023-07-21)"
   xmlns:inkscape="http://www.inkscape.org/namespaces/inkscape"
   xmlns:sodipodi="http://sodipodi.sourceforge.net/DTD/sodipodi-0.dtd"
   xmlns="http://www.w3.org/2000/svg"
   xmlns:svg="http://www.w3.org/2000/svg">
  <sodipodi:namedview
     id="namedview8"
     pagecolor="#ffffff"
     bordercolor="#000000"
     borderopacity="0.25"
     inkscape:showpageshadow="2"
     inkscape:pageopacity="0.0"
     inkscape:pagecheckerboard="0"
     inkscape:deskcolor="#d1d1d1"
     inkscape:zoom="5.08125"
     inkscape:cx="80.98401"
     inkscape:cy="80"
     inkscape:window-width="1920"
     inkscape:window-height="1009"
     inkscape:window-x="-8"
     inkscape:window-y="-8"
     inkscape:window-maximized="1"
     inkscape:current-layer="svg8" />
  <g
     clip-path="url(#clip0_0_1)"
     id="g7"
     style="display:inline">
    <path
       d="m 161.244,139.896 -9.885,-12.429 3.349,-14.019 c 0.594,-2.453 -1.621,-4.664 -4.106,-4.098 -3.376,0.809 -5.888,3.667 -6.185,7.117 -0.162,1.969 -0.243,4.018 -0.432,5.932 l -0.108,0.027 c -0.918,-1.483 -2.026,-3.155 -3.214,-4.907 -2.026,-3.02 -5.699,-4.449 -9.237,-3.613 l -5.672,1.564 c -10.506,2.696 -21.499,4.044 -33.41,4.044 -19.3925,0 -35.3278,-7.171 -36.8943,-19.9775 h 88.7783 c 0.946,-4.0709 1.864,-11.8624 1.864,-22.1611 C 146.065,32.4599 124.512,0 79.4877,0 28.8458,0 3.83545,41.4915 3.83545,82.0664 c 0,48.3666 28.76455,77.4026 80.02765,77.4026 17.0429,0 34.8419,-2.157 50.2639,-7.414 v 0.054 l 1.809,-0.674 c 0.676,-0.243 1.351,-0.459 2.026,-0.701 v -0.054 l 1.27,-0.486 c 3.673,-0.862 6.374,-4.017 6.644,-7.791 0.135,-1.806 0.324,-3.72 0.459,-5.608 l 0.108,-0.027 c 0.945,1.564 1.918,3.182 2.971,4.718 2.161,3.263 6.131,4.826 9.939,3.937 2.431,-0.594 3.457,-3.532 1.891,-5.527 z M 76.6787,36.2074 c 16.2594,0 20.0137,16.2299 20.0137,26.8522 H 54.7744 C 55.4226,52.1138 61.3376,36.2074 76.6787,36.2074 Z m 59.6903,105.6836 -2.998,-16.877 5.401,6.066 z"
       fill="url(#paint0_linear_0_1)"
       id="path2" />
    <path
       d="M 52.6138,88.8066 H 146.065"
       stroke="#ffffff"
       stroke-width="2"
       stroke-miterlimit="10"
       stroke-linecap="round"
       id="path3" />
    <path
       d="M 47.9951,75.542 H 146.065"
       stroke="#ffffff"
       stroke-width="2"
       stroke-miterlimit="10"
       stroke-linecap="round"
       id="path4" />
    <path
       d="M 57.4751,63.7334 H 146.065"
       stroke="#ffffff"
       stroke-width="2"
       stroke-miterlimit="10"
       stroke-linecap="round"
       id="path5" />
    <path
       d="m 155.626,120.404 c -8.805,7.414 -19.122,13.318 -30.682,17.227 C 75.4362,154.346 21.7694,127.818 5.05078,78.4268"
       stroke="#ffffff"
       stroke-miterlimit="10"
       id="path6" />
    <path
       d="M 5.05082,78.4266 C 3.40327,73.5469 2.16086,68.6401 1.35059,63.7334"
       stroke="#ffffff"
       stroke-miterlimit="10"
       id="path7" />
  </g>
  <defs
     id="defs8">
    <linearGradient
       id="paint0_linear_0_1"
       x1="25.6601"
       y1="48.6165"
       x2="158.689"
       y2="128.269"
       gradientUnits="userSpaceOnUse">
      <stop
         stop-color="#7AC259"
         id="stop7" />
      <stop
         offset="1"
         stop-color="#1A4E26"
         id="stop8" />
    </linearGradient>
    <clipPath
       id="clip0_0_1">
      <rect
         width="162"
         height="159.469"
         fill="white"
         id="rect8" />
    </clipPath>
  </defs>
</svg>
