<svg width="100" height="100" viewBox="0 0 100 100" fill="none" xmlns="http://www.w3.org/2000/svg">
<g id="Frame 14">
<g id="Group">
<path id="Vector" d="M9.56126 71.7468C7.97367 69.2226 6.92301 66.4662 6.1684 63.6035C5.5976 61.4381 5.15741 59.2379 4.694 57.0464C4.58854 56.5493 4.62337 56.0212 4.60499 55.5077C4.57307 54.6112 4.50825 53.7291 4.35152 52.8326C4.10869 51.4477 4.12126 50.0173 4.38344 48.6111C4.46568 48.171 4.57403 47.7281 4.58371 47.2842C4.67465 43.1304 5.65952 39.1419 7.05265 35.2782C8.36162 31.6457 10.2075 28.2617 12.3659 25.0305C14.4595 21.898 16.942 19.1272 19.734 16.6561C22.1324 14.5333 24.7561 12.6899 27.5665 11.0845C32.3767 8.33786 37.5516 6.68793 42.9404 5.71694C45.063 5.33395 47.2571 5.19759 49.4542 5.16954C55.5163 5.09314 61.3346 6.26143 66.9487 8.41136C69.4012 9.35044 71.7453 10.6009 73.9908 12.0052C76.9967 13.8863 79.841 15.9685 82.3215 18.514C85.0198 21.2829 87.3717 24.309 89.3743 27.6331C91.7562 31.5848 93.3825 35.8189 94.4902 40.2657C95.1577 42.9427 95.5902 45.6623 95.5476 48.4389C95.5234 50.0482 95.5418 51.6585 95.5437 53.2688C95.5476 56.9565 94.8752 60.531 93.7762 64.0397C92.89 66.8676 91.8181 69.6162 90.4424 72.2448C89.0366 74.9325 87.3243 77.4142 85.3835 79.7353C84.7663 80.4732 84.3135 81.3436 83.5492 81.9655C83.1961 82.2527 82.8904 82.5873 82.3864 82.5593C81.7053 81.949 81.594 81.1057 81.4499 80.2749C81.5766 80.1289 81.7121 79.9896 81.8301 79.8368C84.8621 75.8842 85.4087 71.5785 83.1797 67.1539C80.941 62.7099 77.1302 60.6402 72.1391 60.7931C71.7531 60.8047 71.368 60.8424 70.982 60.8608C70.6057 60.8782 70.3754 60.6983 70.3174 60.325C70.2177 59.6896 70.0736 59.0551 70.0426 58.4159C69.9207 55.9052 69.9536 53.3974 70.1839 50.8887C70.6134 46.2049 70.984 41.5191 70.3938 36.814C69.9894 33.5935 69.2454 30.4813 67.6878 27.6079C66.3092 25.0644 64.4391 22.9618 61.9112 21.516C56.0774 18.1784 46.9098 18.2751 41.3421 25.3777C39.3221 27.9551 37.9202 30.8314 37.1269 33.9871C36.531 36.3566 36.0898 38.7647 35.5732 41.1545C35.4648 41.6574 35.3294 42.1545 35.2104 42.6545C35.1185 43.0404 34.8621 43.1574 34.4974 43.0936C34.2439 43.0491 33.9933 42.9776 33.7389 42.9466C31.6163 42.6884 29.9649 43.4669 28.7778 45.2339C28.5998 45.4989 28.4537 45.7929 28.3337 46.0898C28.1596 46.5231 27.8326 46.6236 27.4127 46.6072C27.0267 46.5917 26.6388 46.585 26.2527 46.6004C22.4971 46.76 19.3916 48.2736 17.0639 51.2165C14.5949 54.3394 13.8413 57.9052 14.7739 61.7718C14.9751 62.6045 14.8271 63.0706 14.1576 63.5581C12.1095 65.0504 10.7667 67.061 10.0634 69.4876C9.84666 70.2274 9.72476 70.9934 9.56126 71.7468Z" fill="#FCE3C4"/>
<path id="Vector_2" d="M9.54883 71.7671C9.7133 71.0137 9.8352 70.2468 10.049 69.5079C10.7523 67.0814 12.0952 65.0707 14.1433 63.5784C14.8127 63.091 14.9608 62.6248 14.7595 61.7921C13.8269 57.9255 14.5806 54.3597 17.0495 51.2369C19.3772 48.2929 22.4827 46.7794 26.2384 46.6208C26.6244 46.6043 27.0123 46.6111 27.3984 46.6275C27.8182 46.6449 28.1452 46.5444 28.3194 46.1101C28.4384 45.8132 28.5845 45.5192 28.7634 45.2542C29.9505 43.4882 31.6019 42.7087 33.7245 42.9669C33.98 42.9979 34.2296 43.0685 34.483 43.1139C34.8478 43.1787 35.1041 43.0608 35.196 42.6749C35.316 42.1739 35.4505 41.6778 35.5588 41.1748C36.0745 38.7851 36.5166 36.3769 37.1126 34.0074C37.9059 30.8517 39.3068 27.9764 41.3278 25.3981C46.8955 18.2954 56.0631 18.1987 61.8968 21.5363C64.4248 22.9831 66.2949 25.0847 67.6735 27.6283C69.2311 30.5016 69.9751 33.6138 70.3795 36.8344C70.9696 41.5385 70.5991 46.2242 70.1695 50.909C69.9393 53.4177 69.9064 55.9255 70.0283 58.4362C70.0592 59.0755 70.2034 59.7099 70.303 60.3453C70.3611 60.7186 70.5913 60.8995 70.9677 60.8811C71.3537 60.8627 71.7387 60.826 72.1247 60.8134C77.1158 60.6606 80.9266 62.7302 83.1653 67.1742C85.3943 71.5988 84.8468 75.9045 81.8157 79.8572C81.6987 80.01 81.5632 80.1492 81.4365 80.2943C80.856 79.8301 80.6674 79.1221 80.3317 78.507C77.3093 72.978 73.1425 68.6684 67.1898 66.3057C65.5267 65.6461 63.8733 64.9092 62.0458 64.7815C62.01 62.6606 61.9868 60.5397 61.9326 58.4197C61.9162 57.7727 62.0922 57.3269 62.7414 57.0667C65.1716 56.0938 66.6432 54.1837 67.6145 51.8607C70.2566 45.5376 70.0215 39.2009 67.5255 32.9059C66.7331 30.9088 65.4242 29.2289 63.8095 27.8014C63.6179 27.6321 63.4118 27.4696 63.1864 27.3536C63.0191 27.2665 62.8004 27.2714 62.6805 27.4638C62.4096 27.9 62.1658 28.3526 61.8958 28.7898C60.2512 31.4465 58.2166 33.727 55.5281 35.375C55.0153 35.4794 54.6061 35.697 54.5355 36.2841C54.0672 36.492 53.5873 36.6777 53.1317 36.9117C50.713 38.1545 48.157 38.9969 45.4907 39.5007C44.5446 39.6797 43.58 39.7599 42.63 39.9214C40.8876 40.2184 39.9511 41.2735 39.774 43.0317C39.4645 46.1101 41.6122 48.6778 44.2485 49.0898C44.6278 49.1488 45.0099 49.1953 45.392 49.2397C46.2492 49.3403 46.2473 49.3394 46.4553 50.2601C47.4808 54.8085 47.772 59.4082 47.4372 64.0533C46.1041 63.9072 44.9344 64.5581 43.6971 64.8531C39.0794 65.9556 35.1699 68.3058 31.8496 71.6907C29.7677 73.8126 27.9904 76.1569 26.4454 78.686C24.8404 81.3146 23.2431 83.9481 21.643 86.5807C20.7094 86.0033 19.799 85.4017 19.3501 84.3301C19.2476 84.0854 19.1053 83.864 18.8277 83.8156C17.9918 83.6686 17.5294 83.0148 17.0002 82.4665C14.3493 79.7208 12.1019 76.6734 10.2183 73.3561C9.93388 72.8503 9.63977 72.3522 9.54883 71.7671Z" fill="#612A28"/>
<path id="Vector_3" d="M21.6794 86.5748C23.2796 83.9432 24.8769 81.3087 26.4819 78.68C28.027 76.1509 29.8042 73.8076 31.8862 71.6847C35.2066 68.2997 39.1161 65.9486 43.7338 64.847C44.9712 64.552 46.1409 63.9011 47.474 64.0462C47.8716 65.2774 48.9775 65.5868 50.0175 65.878C52.9721 66.7049 55.978 66.936 58.9956 66.2687C60.1207 66.0201 61.2449 65.6662 62.0837 64.7764C63.9103 64.904 65.5647 65.64 67.2277 66.3006C73.1806 68.6633 77.3474 72.9729 80.3698 78.5021C80.7065 79.1172 80.8942 79.8251 81.4746 80.2893C81.6169 81.1211 81.7291 81.9644 82.4102 82.5747C82.4363 83.244 81.9468 83.6028 81.5375 84.0012C79.3598 86.1212 76.9614 87.9655 74.3947 89.5816C69.2101 92.8448 63.592 95.0499 57.5366 95.9657C44.4739 97.9406 32.6118 95.0034 22.0519 87.0023C21.9039 86.8901 21.8023 86.7189 21.6794 86.5748Z" fill="#F8713E"/>
<path id="Vector_4" d="M47.8478 99.9207C47.6988 99.9023 47.5711 99.8965 47.4482 99.8704C47.2576 99.8288 47.0573 99.7582 47.0457 99.5348C47.0302 99.233 47.2518 99.1024 47.5111 99.054C47.6959 99.0192 47.8904 98.9931 48.0762 99.0124C48.3877 99.0444 48.7167 99.0743 48.858 99.4351C48.9576 99.6915 48.5484 99.9275 48.0152 99.9217C47.9504 99.9207 47.8875 99.9207 47.8478 99.9207Z" fill="#074E16"/>
<path id="Vector_5" d="M96.7781 63.1236C96.7287 62.6051 96.8961 62.135 97.1951 61.7143C97.2464 61.6417 97.4331 61.6069 97.5289 61.6388C97.6228 61.6708 97.7321 61.8033 97.7447 61.9029C97.8105 62.4223 97.7225 62.9166 97.3577 63.3161C97.2919 63.3877 97.1196 63.4215 97.0239 63.3896C96.9271 63.3586 96.8652 63.2242 96.7781 63.1236Z" fill="#074E16"/>
<path id="Vector_6" d="M10.9266 79.5169C10.766 79.6136 10.6344 79.751 10.5677 79.7249C9.93002 79.4744 9.63588 78.9472 9.50138 78.3107C9.4917 78.2662 9.54105 78.1802 9.58459 78.1589C9.68716 78.1086 9.84584 78.0206 9.90874 78.0612C10.4496 78.4094 10.7999 78.894 10.9266 79.5169Z" fill="#074E16"/>
<path id="Vector_7" d="M46.1656 2.77175C45.9875 2.6963 45.8163 2.6315 45.6537 2.54928C45.6073 2.52606 45.5541 2.44965 45.5589 2.40225C45.5695 2.29199 45.5773 2.13916 45.6479 2.08402C46.0195 1.79578 46.4636 1.82189 46.9009 1.85091C47.0993 1.86445 47.2764 1.94957 47.3199 2.15173C47.3886 2.4719 47.137 2.5812 46.9029 2.64891C46.6678 2.71565 46.4172 2.73209 46.1656 2.77175Z" fill="#074E16"/>
<path id="Vector_8" d="M2.57755 41.9086C2.53691 42.0363 2.46628 42.343 2.33952 42.6254C2.26405 42.7937 2.07634 42.9552 1.88476 42.8208C1.75607 42.7308 1.63996 42.5277 1.63705 42.372C1.63125 42.1272 1.70188 41.8729 1.78316 41.6368C1.87895 41.3592 1.9283 40.9472 2.36662 41.0836C2.6327 41.1668 2.62303 41.4743 2.57755 41.9086Z" fill="#074E16"/>
<path id="Vector_9" d="M57.8708 3.22111C57.4867 3.20274 57.1113 3.14083 56.8007 2.89901C56.7233 2.83808 56.6681 2.67944 56.6875 2.58272C56.7078 2.48019 56.8142 2.3467 56.911 2.31672C57.3609 2.18033 57.7799 2.34284 58.195 2.50147C58.3885 2.57498 58.5153 2.7104 58.4727 2.92416C58.4301 3.13212 58.2608 3.21047 58.0595 3.22015C57.9966 3.22401 57.9337 3.22111 57.8708 3.22111Z" fill="#074E16"/>
<path id="Vector_10" d="M2.20363 60.4043C2.3178 60.4314 2.48713 60.4198 2.53745 60.4914C2.83063 60.9131 3.00286 61.3832 2.92448 61.9055C2.90997 62.0042 2.79386 62.1318 2.69807 62.1638C2.60131 62.1957 2.42521 62.1657 2.36231 62.0941C1.95689 61.6327 1.88142 61.0959 2.073 60.5204C2.08848 60.472 2.15815 60.442 2.20363 60.4043Z" fill="#074E16"/>
<path id="Vector_11" d="M97.3837 38.2655C97.315 38.3787 97.2743 38.5277 97.1834 38.5712C97.0973 38.6118 96.9105 38.5838 96.8505 38.5151C96.5167 38.1262 96.3638 37.659 96.3871 37.1483C96.3919 37.0448 96.4829 36.8988 96.5728 36.8572C96.6609 36.8166 96.8457 36.8427 96.9067 36.9113C97.2472 37.2973 97.3895 37.7625 97.3837 38.2655Z" fill="#074E16"/>
<path id="Vector_12" d="M31.1836 6.06463C30.9911 6.54633 30.2538 6.93227 29.6703 6.82877C29.5948 6.81523 29.4758 6.61984 29.499 6.54536C29.6529 6.05206 30.3805 5.68159 31.0007 5.78219C31.0743 5.79573 31.1227 5.96694 31.1836 6.06463Z" fill="#074E16"/>
<path id="Vector_13" d="M93.3459 28.0842C93.2752 28.148 93.1969 28.2341 93.1021 28.297C93.0585 28.326 92.9821 28.3212 92.926 28.3086C92.8679 28.295 92.7982 28.267 92.7634 28.2225C92.4315 27.794 91.999 27.3974 92.2322 26.7658C92.2477 26.7232 92.3202 26.6797 92.3696 26.6739C92.7944 26.6284 93.3023 27.352 93.3459 28.0842Z" fill="#074E16"/>
<path id="Vector_14" d="M63.2465 4.41849C63.0752 4.37303 62.8265 4.32467 62.5924 4.23955C62.3621 4.15539 62.1347 4.05383 62.1028 3.74914C62.0776 3.51119 62.4472 3.3661 62.8507 3.48218C63.1526 3.56826 63.4545 3.66306 63.7399 3.79073C63.8222 3.82749 63.8938 3.99579 63.886 4.09833C63.8793 4.19602 63.7825 4.3237 63.6916 4.37109C63.59 4.42429 63.4487 4.40205 63.2465 4.41849Z" fill="#074E16"/>
<path id="Vector_15" d="M30.0072 95.1894C29.9327 95.2794 29.8611 95.4457 29.7837 95.4477C29.1025 95.468 28.3701 95.0018 28.3439 94.553C28.341 94.5017 28.371 94.4282 28.4107 94.3982C28.7648 94.138 29.5921 94.4601 29.9917 95.0153C30.0198 95.0569 30.0024 95.1314 30.0072 95.1894Z" fill="#074E16"/>
<path id="Vector_16" d="M93.5831 29.0449C93.7282 29.0875 93.8811 29.0855 93.9546 29.161C94.2739 29.4889 94.4849 29.8864 94.5236 30.3478C94.5323 30.4465 94.4413 30.6013 94.3523 30.6486C94.2623 30.697 94.0765 30.6912 94.0049 30.6274C93.6121 30.2782 93.346 29.8478 93.3663 29.3012C93.3712 29.2094 93.5144 29.1233 93.5831 29.0449Z" fill="#074E16"/>
<path id="Vector_17" d="M88.4742 80.7995C88.4065 80.6989 88.2729 80.5935 88.2817 80.4997C88.3291 79.9386 88.7055 79.5875 89.1409 79.3002C89.2173 79.2499 89.4021 79.2751 89.4795 79.337C89.5637 79.4037 89.6431 79.573 89.616 79.6659C89.467 80.1776 89.1651 80.5809 88.6658 80.8063C88.6135 80.8295 88.5381 80.8024 88.4742 80.7995Z" fill="#074E16"/>
<path id="Vector_18" d="M58.6983 99.1808C58.5029 99.1189 58.3839 99.0899 58.2736 99.0405C58.2271 99.0202 58.1671 98.9535 58.17 98.9119C58.1797 98.7977 58.1826 98.6372 58.2542 98.583C58.6103 98.316 59.0331 98.1932 59.4714 98.2154C59.6243 98.2232 59.813 98.3644 59.9059 98.4989C60.0423 98.6971 59.8769 98.8655 59.7017 98.9225C59.3515 99.0405 58.9876 99.1092 58.6983 99.1808Z" fill="#074E16"/>
<path id="Vector_19" d="M42.447 99.3955C42.2718 99.3298 41.9651 99.234 41.6816 99.0928C41.6081 99.056 41.5597 98.8645 41.5848 98.7668C41.61 98.6701 41.7406 98.5366 41.8306 98.5327C42.147 98.5173 42.4712 98.524 42.7837 98.5743C43.0295 98.614 43.2704 98.7252 43.3401 99.0135C43.3952 99.2417 42.9627 99.4691 42.447 99.3955Z" fill="#074E16"/>
<path id="Vector_20" d="M98.9102 46.1262C98.8724 46.3177 98.8763 46.4599 98.8144 46.5615C98.7554 46.6563 98.6267 46.7608 98.5261 46.7627C98.4303 46.7656 98.2784 46.6621 98.2435 46.5702C98.1303 46.2723 98.0365 45.9618 97.9803 45.6484C97.9329 45.3805 98.0297 45.1125 98.2967 45.0168C98.6393 44.8939 98.735 45.1938 98.8018 45.4317C98.8715 45.6755 98.8821 45.9366 98.9102 46.1262Z" fill="#074E16"/>
<path id="Vector_21" d="M75.0398 8.83621C75.6242 8.79268 76.4399 9.39626 76.4215 9.86345C76.4195 9.91278 76.3654 9.98822 76.3189 10.0047C75.8622 10.171 75.0069 9.67193 74.8579 9.13316C74.8356 9.05675 74.9749 8.93584 75.0398 8.83621Z" fill="#074E16"/>
<path id="Vector_22" d="M23.8027 9.84007C23.8085 9.90295 23.8414 9.98226 23.8163 10.0277C23.556 10.493 23.1418 10.7803 22.6484 10.9341C22.4674 10.9902 22.2401 10.846 22.2546 10.6439C22.2913 10.1409 23.1331 9.60599 23.676 9.71046C23.7243 9.72013 23.7611 9.79558 23.8027 9.84007Z" fill="#074E16"/>
<path id="Vector_23" d="M77.4433 10.3457C78.0025 10.3428 78.3325 10.7471 78.6702 11.1195C78.7408 11.1979 78.7805 11.3788 78.7389 11.4677C78.6469 11.6651 78.4341 11.6893 78.258 11.6032C77.8593 11.4087 77.4307 11.2356 77.2188 10.8081C77.1772 10.7239 77.2401 10.5769 77.2788 10.4666C77.2942 10.4202 77.3726 10.395 77.4433 10.3457Z" fill="#074E16"/>
<path id="Vector_24" d="M88.7573 21.0482C88.7292 21.1004 88.7118 21.1826 88.6692 21.1991C88.5618 21.2416 88.3944 21.3152 88.3354 21.2687C87.8971 20.9215 87.3881 20.6033 87.4772 19.9213C87.4839 19.872 87.5555 19.8101 87.6097 19.7917C87.9842 19.6611 88.4176 20.0664 88.7524 20.8615C88.7766 20.9147 88.7563 20.9853 88.7573 21.0482Z" fill="#074E16"/>
<path id="Vector_25" d="M89.292 22.0215C89.41 22.035 89.5755 22.0031 89.6394 22.0698C89.8996 22.3426 90.1415 22.6357 90.366 22.9394C90.485 23.1019 90.4792 23.3176 90.3273 23.455C90.0806 23.6784 89.8406 23.543 89.6926 23.3263C89.4816 23.0168 89.3055 22.6802 89.1498 22.3387C89.1178 22.2701 89.2407 22.1298 89.292 22.0215Z" fill="#074E16"/>
<path id="Vector_26" d="M91.6182 76.1977C91.5582 76.0961 91.4373 75.9868 91.4479 75.893C91.5002 75.4326 91.7643 75.0669 92.0614 74.7323C92.1949 74.5823 92.3971 74.5456 92.5568 74.6839C92.6381 74.7545 92.7048 74.9189 92.6806 75.0186C92.5597 75.5322 92.2752 75.9433 91.8069 76.2073C91.7605 76.2325 91.6821 76.2015 91.6182 76.1977Z" fill="#074E16"/>
<path id="Vector_27" d="M90.1375 78.5334C90.0756 78.4338 89.9459 78.3206 89.9624 78.2365C90.063 77.7248 90.2962 77.2769 90.7568 76.9964C90.8351 76.949 91.0151 76.9771 91.0906 77.04C91.1728 77.1086 91.2493 77.274 91.2241 77.3688C91.0848 77.8757 90.7868 78.279 90.3262 78.547C90.2807 78.5731 90.2014 78.5392 90.1375 78.5334Z" fill="#074E16"/>
<path id="Vector_28" d="M54.8735 2.85026C54.6907 2.81931 54.4343 2.79803 54.1914 2.72935C54.0017 2.67615 53.8411 2.50398 53.9253 2.31536C53.9892 2.17221 54.1962 2.00003 54.3385 2.00197C54.7139 2.00681 55.0912 2.08419 55.4599 2.16737C55.5518 2.18768 55.6786 2.33374 55.6795 2.4237C55.6824 2.63456 55.5199 2.7574 55.3225 2.8048C55.1996 2.83285 55.07 2.83092 54.8735 2.85026Z" fill="#074E16"/>
<path id="Vector_29" d="M77.6072 91.0274C77.6072 91.0883 77.6314 91.1666 77.6033 91.2131C77.3295 91.6638 76.9309 91.9646 76.4219 92.0942C76.3319 92.1175 76.1694 92.0265 76.1094 91.9404C76.0523 91.8582 76.0329 91.6793 76.0852 91.6019C76.3813 91.1618 76.8225 90.9229 77.3343 90.831C77.4108 90.8175 77.5134 90.9567 77.6072 91.0274Z" fill="#074E16"/>
<path id="Vector_30" d="M91.967 25.5825C91.8673 25.6938 91.7987 25.7915 91.7087 25.863C91.669 25.8949 91.5684 25.8988 91.5258 25.8708C91.0217 25.54 90.7382 25.0718 90.7266 24.4673C90.7256 24.4102 90.9539 24.2738 91.0149 24.3028C91.5606 24.5611 91.8567 25.0147 91.967 25.5825Z" fill="#074E16"/>
<path id="Vector_31" d="M18.2071 87.818C18.1481 87.8335 18.0823 87.8761 18.032 87.8615C17.5249 87.7194 17.1108 87.4398 16.8573 86.9726C16.8118 86.8894 16.8438 86.7134 16.9076 86.6341C16.9744 86.5509 17.1476 86.4658 17.2308 86.4967C17.7214 86.6815 18.1152 86.9987 18.3222 87.493C18.3542 87.5723 18.2487 87.7087 18.2071 87.818Z" fill="#074E16"/>
<path id="Vector_32" d="M79.8983 89.4008C79.8703 89.5207 79.8722 89.6619 79.8074 89.7577C79.5471 90.1407 79.1475 90.3448 78.7295 90.5006C78.6463 90.5315 78.4731 90.4532 78.4111 90.3719C78.3521 90.2945 78.3337 90.1098 78.387 90.0382C78.6898 89.6271 79.0323 89.247 79.5926 89.2228C79.6922 89.218 79.7967 89.3379 79.8983 89.4008Z" fill="#074E16"/>
<path id="Vector_33" d="M45.2819 99.7111C45.0633 99.6541 44.7488 99.5902 44.4508 99.48C44.3734 99.4519 44.2998 99.272 44.3143 99.1743C44.3298 99.0737 44.4469 98.918 44.5311 98.9102C44.8456 98.8803 45.1687 98.8725 45.4822 98.9102C45.9205 98.9625 46.2099 99.2894 46.0502 99.4964C45.8741 99.7247 45.6361 99.7576 45.2819 99.7111Z" fill="#074E16"/>
<path id="Vector_34" d="M4.55718 32.9785C4.65684 33.0356 4.80005 33.0704 4.84552 33.1565C4.89584 33.2523 4.90067 33.4186 4.84939 33.5124C4.62491 33.9226 4.72264 34.5223 4.15079 34.7273C4.10725 34.7428 4.02404 34.7206 3.99114 34.6848C3.68441 34.3617 3.86632 33.5976 4.38882 33.0259C4.42268 32.9892 4.50009 32.994 4.55718 32.9785Z" fill="#074E16"/>
<path id="Vector_35" d="M72.5584 93.5859C72.719 93.6972 72.8245 93.7533 72.9048 93.8336C72.9396 93.8684 72.9551 93.9748 72.928 94.0135C72.6251 94.4468 72.2168 94.735 71.6924 94.8231C71.5908 94.8405 71.4331 94.766 71.3673 94.6828C71.3073 94.6064 71.287 94.4275 71.3363 94.3491C71.6324 93.8839 72.1462 93.7862 72.5584 93.5859Z" fill="#074E16"/>
<path id="Vector_36" d="M96.6129 35.5931C96.5481 35.6957 96.5036 35.8485 96.4117 35.8882C96.3217 35.9268 96.1775 35.8611 96.0662 35.8185C96.0149 35.7992 95.9666 35.7334 95.9462 35.6783C95.7818 35.2198 95.3638 34.8029 95.6937 34.2602C95.7169 34.2225 95.7992 34.1954 95.8485 34.2022C96.2801 34.2612 96.5703 34.7951 96.6129 35.5931Z" fill="#074E16"/>
<path id="Vector_37" d="M81.0073 13.09C80.9115 13.1567 80.808 13.2892 80.7199 13.2796C80.1113 13.2138 79.7194 12.8433 79.4669 12.3094C79.4466 12.2659 79.4678 12.1643 79.5036 12.1411C79.6014 12.0773 79.7446 11.9747 79.822 12.0057C80.2893 12.1953 80.7015 12.4729 80.986 12.9043C81.015 12.9507 81.0005 13.0271 81.0073 13.09Z" fill="#074E16"/>
<path id="Vector_38" d="M80.9553 88.7382C80.8324 88.6492 80.6563 88.5786 80.6582 88.5138C80.6708 88.0717 81.5155 87.3869 82.0012 87.4275C82.0641 87.4323 82.1831 87.65 82.1551 87.7196C81.9316 88.2719 81.5232 88.6163 80.9553 88.7382Z" fill="#074E16"/>
<path id="Vector_39" d="M63.5709 97.6406C63.5622 97.5777 63.5216 97.4955 63.5477 97.4559C63.8418 97.0138 64.5095 96.7991 65.0484 96.9896C65.1133 97.0128 65.1878 97.2295 65.151 97.2846C64.8472 97.7412 64.1679 97.9598 63.6822 97.776C63.6348 97.7586 63.6077 97.687 63.5709 97.6406Z" fill="#074E16"/>
<path id="Vector_40" d="M22.6862 91.0927C22.6465 91.1382 22.6136 91.2127 22.5653 91.2262C22.1289 91.3433 21.2793 90.7706 21.1545 90.2754C21.1429 90.2299 21.1797 90.1429 21.2193 90.1206C21.3229 90.0626 21.4622 89.9659 21.5483 89.9959C22.0321 90.1642 22.4366 90.4514 22.6978 90.9061C22.724 90.9515 22.692 91.0299 22.6862 91.0927Z" fill="#074E16"/>
<path id="Vector_41" d="M1.82897 47.2908C1.77188 47.6332 1.8909 48.0365 1.48741 48.2745C1.20487 48.4408 1.0249 48.0027 1.06651 47.253C1.07328 47.1292 1.0907 47.0054 1.11682 46.8845C1.15746 46.693 1.24938 46.5324 1.47386 46.5479C1.68673 46.5624 1.79123 46.7036 1.80672 46.9116C1.81639 47.0364 1.82123 47.1602 1.82897 47.2908Z" fill="#074E16"/>
<path id="Vector_42" d="M9.99366 23.4885C9.894 24.0476 9.59114 24.4916 9.05123 24.7634C9.00478 24.7866 8.89544 24.776 8.87319 24.7421C8.80836 24.6444 8.71064 24.5071 8.73676 24.42C8.88674 23.9296 9.1654 23.5127 9.57953 23.2071C9.63565 23.1655 9.79627 23.2438 9.89593 23.2922C9.93851 23.3115 9.95109 23.3957 9.99366 23.4885Z" fill="#074E16"/>
<path id="Vector_43" d="M5.9586 30.6922C5.90829 31.261 5.70026 31.7659 5.23001 32.1402C5.19517 32.1683 5.08971 32.1576 5.05391 32.1247C4.97069 32.0493 4.84491 31.9458 4.84974 31.8587C4.8749 31.3345 5.09648 30.8876 5.48932 30.5413C5.55512 30.4833 5.7138 30.5142 5.82508 30.5336C5.87152 30.5403 5.90442 30.6245 5.9586 30.6922Z" fill="#074E16"/>
<path id="Vector_44" d="M95.676 33.0964C95.5695 33.1728 95.4505 33.3169 95.3818 33.2957C94.8893 33.1467 94.4916 32.3294 94.6445 31.779C94.6648 31.7064 94.9019 31.6078 94.9483 31.6416C95.4312 32.0034 95.6276 32.518 95.676 33.0964Z" fill="#074E16"/>
<path id="Vector_45" d="M97.3712 39.534C97.436 39.534 97.5192 39.5079 97.554 39.5378C97.9275 39.8619 98.1036 40.6637 97.8685 41.0526C97.8269 41.1213 97.6092 41.1716 97.5473 41.1261C97.1177 40.8156 96.9803 40.123 97.2289 39.6162C97.2493 39.5746 97.3247 39.5601 97.3712 39.534Z" fill="#074E16"/>
<path id="Vector_46" d="M2.64258 63.4653C2.69193 63.2622 2.72289 63.0514 2.97736 63.0958C3.08477 63.1142 3.23861 63.1993 3.26571 63.2864C3.40601 63.7429 3.76692 64.1927 3.37795 64.688C3.35085 64.7228 3.24829 64.7296 3.19604 64.7092C2.59033 64.4732 2.68709 63.9277 2.64258 63.4653Z" fill="#074E16"/>
<path id="Vector_47" d="M96.002 65.8044C96.1519 65.2908 96.1036 64.6689 96.7218 64.3719C96.7654 64.3506 96.8689 64.3632 96.8873 64.3941C97.2453 65.0035 96.8225 65.4746 96.5815 65.9689C96.5448 66.0453 96.3532 66.1023 96.2564 66.0782C96.1626 66.0549 96.0977 65.9147 96.002 65.8044Z" fill="#074E16"/>
<path id="Vector_48" d="M37.0231 98.1971C36.9699 98.1759 36.6167 98.054 36.2829 97.8915C36.2045 97.8538 36.1474 97.6729 36.1629 97.5704C36.1765 97.4794 36.2935 97.3556 36.3855 97.3343C36.847 97.2289 37.2553 97.4001 37.624 97.6574C37.7014 97.7116 37.7585 97.8741 37.7401 97.9718C37.7014 98.171 37.5601 98.2929 37.0231 98.1971Z" fill="#074E16"/>
<path id="Vector_49" d="M4.32227 68.726C4.39 68.6187 4.43354 68.4697 4.52449 68.4301C4.61545 68.3904 4.79251 68.4194 4.86412 68.4881C5.19697 68.8092 5.38274 69.2068 5.33533 69.6798C5.32372 69.7949 5.25793 69.9564 5.17084 69.998C5.08763 70.0377 4.90669 69.9854 4.83122 69.91C4.50611 69.5859 4.34646 69.1797 4.32227 68.726Z" fill="#074E16"/>
<path id="Vector_50" d="M94.8339 69.6348C94.922 69.7044 95.0777 69.7673 95.0855 69.8456C95.1532 70.5246 94.83 71.1205 94.3675 71.2046C94.3172 71.2133 94.2408 71.1921 94.205 71.1563C93.9292 70.8787 94.144 70.1639 94.6549 69.6706C94.6926 69.6357 94.7729 69.6454 94.8339 69.6348Z" fill="#074E16"/>
<path id="Vector_51" d="M7.51471 75.0406C7.0822 74.8375 6.93513 74.4148 6.74935 74.0211C6.66517 73.8431 6.61485 73.641 6.78612 73.5123C7.0464 73.3179 7.25927 73.4717 7.38796 73.7048C7.56793 74.0298 7.72758 74.3674 7.86014 74.7137C7.8882 74.7872 7.77403 74.9294 7.70243 75.0212C7.67727 75.0551 7.58341 75.0358 7.51471 75.0406Z" fill="#074E16"/>
<path id="Vector_52" d="M40.5352 3.43182C40.4258 3.36508 40.2836 3.32639 40.2323 3.23547C40.123 3.04395 40.2275 2.85727 40.3968 2.77408C40.8516 2.55161 41.3247 2.37557 41.7989 2.73539C41.8337 2.76247 41.8463 2.86887 41.8221 2.9153C41.5415 3.45987 40.9909 3.3351 40.5352 3.43182Z" fill="#074E16"/>
<path id="Vector_53" d="M37.9358 4.03959C37.569 4.02604 37.3862 3.96898 37.362 3.74651C37.3388 3.53467 37.4732 3.39442 37.6726 3.34219C37.9764 3.2619 38.2831 3.18259 38.5928 3.13423C38.8008 3.10231 38.9595 3.21548 38.9827 3.43505C39.0059 3.64784 38.8734 3.79584 38.6876 3.85484C38.3896 3.94673 38.0819 4.00477 37.9358 4.03959Z" fill="#074E16"/>
<path id="Vector_54" d="M24.9988 92.6023C24.9001 92.6613 24.7879 92.7861 24.7037 92.7696C24.1967 92.6681 23.7874 92.3866 23.4758 91.9803C23.4274 91.9165 23.4623 91.7289 23.5252 91.6563C23.5939 91.577 23.7622 91.5015 23.8493 91.5325C24.3283 91.7018 24.7511 91.9629 25.0162 92.4185C25.0414 92.4611 25.0065 92.5404 24.9988 92.6023Z" fill="#074E16"/>
<path id="Vector_55" d="M97.8711 57.2429C97.9282 57.0465 97.9978 56.7418 98.1149 56.4565C98.1459 56.3801 98.3278 56.3192 98.4304 56.3317C98.5329 56.3443 98.6839 56.4439 98.7061 56.532C98.8164 56.9788 98.6771 57.4054 98.5107 57.8136C98.4787 57.891 98.2978 57.9577 98.1972 57.9442C98.0994 57.9306 97.9833 57.8252 97.9359 57.7294C97.8837 57.6221 97.8992 57.4828 97.8711 57.2429Z" fill="#074E16"/>
<path id="Vector_56" d="M66.3856 4.91215C66.313 4.99534 66.2346 5.15397 66.1688 5.14913C65.8602 5.12688 65.5447 5.09206 65.2525 4.99727C65.03 4.92473 64.7871 4.81349 64.7871 4.49139C64.7871 4.24474 65.1538 4.12383 65.5534 4.27085C65.7876 4.35694 66.0208 4.45947 66.2298 4.59295C66.3149 4.64615 66.3352 4.80188 66.3856 4.91215Z" fill="#074E16"/>
<path id="Vector_57" d="M67.857 5.21484C68.3582 5.27095 68.8498 5.358 69.0733 5.90837C69.0926 5.95577 69.0742 6.04186 69.0404 6.08442C68.8246 6.35912 68.3157 6.27787 67.6577 5.84357C67.5 5.7391 67.4148 5.54081 67.5174 5.3638C67.5658 5.27965 67.7351 5.26417 67.857 5.21484Z" fill="#074E16"/>
<path id="Vector_58" d="M6.99518 27.9434C7.06 28.0391 7.18095 28.1349 7.17998 28.2287C7.17321 28.6804 6.95163 29.0509 6.64491 29.3633C6.5704 29.4397 6.40398 29.5026 6.31689 29.4707C6.23271 29.4397 6.1524 29.2811 6.1466 29.1747C6.11951 28.7123 6.36237 28.3515 6.65942 28.0323C6.72618 27.9608 6.881 27.9704 6.99518 27.9434Z" fill="#074E16"/>
<path id="Vector_59" d="M97.9938 42.4238C98.049 42.4335 98.1264 42.4219 98.1564 42.4538C98.5154 42.8436 98.6286 43.3069 98.5124 43.8157C98.4931 43.8999 98.3422 43.9976 98.2425 44.0082C98.1457 44.0179 97.9629 43.9424 97.9464 43.8738C97.8487 43.4617 97.7771 43.0419 97.7287 42.6212C97.7219 42.566 97.9009 42.4896 97.9938 42.4238Z" fill="#074E16"/>
<path id="Vector_60" d="M1.71953 50.5024C1.66825 50.6127 1.60342 50.7936 1.50279 50.9512C1.41667 51.0847 1.28411 51.0915 1.17865 50.9938C0.758711 50.6049 0.764517 49.835 1.20574 49.4703C1.26186 49.4239 1.47279 49.4597 1.51633 49.5226C1.70211 49.7915 1.77662 50.102 1.71953 50.5024Z" fill="#074E16"/>
<path id="Vector_61" d="M99.0575 51.5874C99.014 51.8147 98.9724 52.0565 98.9162 52.2944C98.9046 52.3438 98.8292 52.4202 98.7963 52.4144C98.6802 52.3921 98.5224 52.3738 98.4653 52.2935C98.1441 51.8427 98.2583 51.3446 98.3754 50.8619C98.3957 50.7768 98.5524 50.681 98.6531 50.6723C98.7411 50.6646 98.8979 50.7555 98.9221 50.8329C98.9937 51.0689 99.014 51.3194 99.0575 51.5874Z" fill="#074E16"/>
<path id="Vector_62" d="M2.29691 58.8864C2.26981 59.0083 2.2524 59.1321 2.21176 59.2491C2.19241 59.3052 2.11887 59.3933 2.09081 59.3855C1.97276 59.3555 1.80537 59.3246 1.76183 59.2395C1.64959 59.0209 1.56444 58.7781 1.5238 58.5353C1.47155 58.2229 1.45123 57.8901 1.7328 57.6531C1.91374 57.5013 2.23014 57.9897 2.27659 58.5034C2.28723 58.631 2.29013 58.7587 2.29691 58.8864Z" fill="#074E16"/>
<path id="Vector_63" d="M98.2592 59.5176C98.2234 59.7478 98.1943 60.067 98.1169 60.3736C98.0695 60.5603 97.9099 60.7141 97.6999 60.6754C97.6119 60.659 97.5035 60.5061 97.4851 60.4017C97.4087 59.9548 97.4067 59.506 97.6941 59.121C97.7589 59.034 97.9166 58.9517 98.0124 58.9691C98.0966 58.9846 98.1634 59.1384 98.2205 59.24C98.2505 59.2932 98.2408 59.3657 98.2592 59.5176Z" fill="#074E16"/>
<path id="Vector_64" d="M4.45139 67.0921C4.31302 67.2121 4.23368 67.2972 4.13885 67.3572C4.09628 67.3842 3.99662 67.3862 3.96469 67.3552C3.58056 66.9896 3.3851 66.5466 3.48476 66.0136C3.50218 65.9198 3.61926 65.7912 3.70634 65.7776C3.80504 65.7621 3.98501 65.8298 4.01887 65.9092C4.1853 66.3038 4.31689 66.7139 4.45139 67.0921Z" fill="#074E16"/>
<path id="Vector_65" d="M96.2001 67.2443C96.2533 67.6254 96.0385 67.9465 95.8624 68.2628C95.7889 68.3953 95.5567 68.554 95.4377 68.5259C95.1387 68.4543 95.158 68.167 95.2393 67.9397C95.3409 67.6525 95.4773 67.3729 95.6331 67.1108C95.6786 67.0344 95.8518 66.9821 95.9485 67.0025C96.0405 67.0218 96.1092 67.1514 96.2001 67.2443Z" fill="#074E16"/>
<path id="Vector_66" d="M6.48553 72.1635C6.40135 72.2534 6.33459 72.3453 6.2475 72.4072C6.2117 72.4334 6.11107 72.4159 6.0714 72.3821C5.56245 71.9439 5.33313 71.3036 5.56051 70.9612C5.58857 70.9196 5.65921 70.8819 5.70952 70.8828C6.09946 70.8944 6.45844 71.5009 6.48553 72.1635Z" fill="#074E16"/>
<path id="Vector_67" d="M8.41288 75.8203C8.84249 75.9548 9.2334 76.5912 9.19857 77.1474C9.19373 77.217 9.01569 77.3486 8.9499 77.3302C8.5019 77.2103 8.1197 76.5738 8.16131 76.0186C8.16615 75.9461 8.3258 75.8851 8.41288 75.8203Z" fill="#074E16"/>
<path id="Vector_68" d="M14.3671 83.8407C14.2606 83.8978 14.13 84.0274 14.0516 84.0003C13.5233 83.8223 13.2331 83.4209 13.145 82.8831C13.1344 82.8164 13.3056 82.6432 13.3656 82.6549C13.9162 82.7671 14.22 83.1559 14.4 83.6589C14.4174 83.7101 14.3787 83.7798 14.3671 83.8407Z" fill="#074E16"/>
<path id="Vector_69" d="M70.3063 95.1812C70.2947 95.2422 70.3034 95.3205 70.2686 95.3602C69.9299 95.7432 69.5129 95.9802 68.9904 95.958C68.9091 95.9541 68.7688 95.8119 68.7659 95.7287C68.7466 95.2596 69.7461 94.7953 70.2173 95.0478C70.2579 95.071 70.2763 95.1358 70.3063 95.1812Z" fill="#074E16"/>
<path id="Vector_70" d="M32.3752 96.1329C32.3665 96.188 32.3791 96.2625 32.3472 96.2964C32.0356 96.6311 30.9935 96.2441 30.8406 95.7228C30.8184 95.6473 30.9374 95.4491 31.0061 95.4413C31.5673 95.3765 32.2359 95.7296 32.3752 96.1329Z" fill="#074E16"/>
<path id="Vector_71" d="M66.2734 96.6888C66.2802 96.6269 66.2657 96.5457 66.2986 96.506C66.6876 96.0378 67.1985 95.9073 67.7742 96.0253C67.8322 96.0369 67.9183 96.2787 67.8796 96.3309C67.54 96.7942 66.9382 96.9771 66.3992 96.8049C66.3508 96.7884 66.315 96.7285 66.2734 96.6888Z" fill="#074E16"/>
<path id="Vector_72" d="M33.8604 96.4883C34.3326 96.526 34.8145 96.5937 35.0602 97.1151C35.0815 97.1596 35.0651 97.2631 35.0302 97.2863C34.5193 97.6268 34.0955 97.2282 33.6446 97.0977C33.5634 97.0744 33.4811 96.9042 33.4753 96.7978C33.4618 96.5666 33.6446 96.5105 33.8604 96.4883Z" fill="#074E16"/>
<path id="Vector_73" d="M61.0569 98.5374C61.0075 98.4997 60.9195 98.4659 60.9146 98.4233C60.903 98.3121 60.8837 98.1438 60.9456 98.0925C61.4787 97.6447 62.1425 97.5334 62.4734 97.8197C62.5063 97.8478 62.5082 97.9339 62.4966 97.9861C62.4134 98.3517 61.7729 98.5955 61.0569 98.5374Z" fill="#074E16"/>
<path id="Vector_74" d="M50.7052 99.1719C50.8561 99.1893 51.1154 99.199 51.3622 99.2589C51.4541 99.2812 51.5712 99.4185 51.5779 99.5104C51.5857 99.611 51.5044 99.7696 51.4163 99.8161C51.0593 100.003 50.6694 99.9573 50.2872 99.9089C50.0801 99.8828 49.935 99.759 49.8866 99.5588C49.8237 99.2957 50.0288 99.2473 50.2156 99.2115C50.3404 99.1864 50.471 99.1893 50.7052 99.1719Z" fill="#074E16"/>
<path id="Vector_75" d="M43.3832 2.92504C43.2603 2.90279 43.1345 2.89021 43.0155 2.85539C42.9593 2.83895 42.8684 2.77318 42.8732 2.74222C42.8906 2.62809 42.9148 2.49557 42.9864 2.41335C43.0638 2.32436 43.1916 2.24698 43.3077 2.22764C43.7344 2.15509 44.1853 1.97034 44.5559 2.36789C44.7987 2.62712 44.1834 2.9231 43.3832 2.92504Z" fill="#074E16"/>
<path id="Vector_76" d="M71.644 7.15236C71.6208 7.19589 71.6034 7.25489 71.5647 7.29552C71.526 7.33711 71.4679 7.38741 71.4186 7.38741C70.7945 7.38354 70.1278 6.98309 70.1094 6.60296C70.1075 6.55846 70.1501 6.49462 70.1907 6.46947C70.5419 6.25281 71.2386 6.48979 71.6402 6.96665C71.6702 7.00147 71.644 7.08465 71.644 7.15236Z" fill="#074E16"/>
<path id="Vector_77" d="M27.1465 7.7225C27.1591 7.66253 27.1542 7.58805 27.1881 7.54355C27.4997 7.13343 27.9138 6.89839 28.4314 6.89258C28.5166 6.89162 28.6134 7.0193 28.683 7.10538C28.713 7.14311 28.7149 7.24564 28.685 7.28239C28.3637 7.68381 27.9515 7.92369 27.4271 7.90821C27.3323 7.90628 27.2403 7.78827 27.1465 7.7225Z" fill="#074E16"/>
<path id="Vector_78" d="M72.7898 7.57128C73.1962 7.51905 73.4962 7.77731 73.8029 7.9756C73.9345 8.06072 74.0893 8.31608 74.0477 8.42054C73.9422 8.68557 73.6674 8.70105 73.4275 8.58208C73.1507 8.44472 72.8808 8.28706 72.6302 8.10618C72.5489 8.04718 72.487 7.875 72.5112 7.77924C72.5334 7.69316 72.6873 7.64189 72.7898 7.57128Z" fill="#074E16"/>
<path id="Vector_79" d="M21.5344 11.501C21.4696 11.9459 20.9064 12.4054 20.3443 12.4605C20.2997 12.4644 20.2378 12.3996 20.201 12.3532C20.1691 12.3116 20.1353 12.2448 20.1469 12.2003C20.2775 11.6761 20.828 11.2128 21.3273 11.2331C21.3999 11.236 21.4657 11.4072 21.5344 11.501Z" fill="#074E16"/>
<path id="Vector_80" d="M11.5469 21.3574C11.4404 21.8062 11.2227 22.1921 10.8202 22.4407C10.7292 22.4968 10.5531 22.5045 10.467 22.4523C10.3809 22.3991 10.2987 22.2318 10.3171 22.1331C10.4041 21.6553 10.7505 21.3612 11.1376 21.1233C11.2082 21.0798 11.3601 21.1484 11.4646 21.191C11.5053 21.2084 11.5178 21.2955 11.5469 21.3574Z" fill="#074E16"/>
<path id="Vector_81" d="M52.0078 2.56017C51.8743 2.53212 51.6314 2.48859 51.3915 2.42959C51.2347 2.3909 51.1757 2.27676 51.2463 2.13941C51.2996 2.03688 51.3721 1.90243 51.466 1.87147C51.8327 1.75153 52.213 1.76024 52.5748 1.89275C52.6716 1.92854 52.7626 2.05429 52.8022 2.15972C52.9058 2.43539 52.6532 2.45087 52.4965 2.50697C52.3823 2.54759 52.2488 2.53695 52.0078 2.56017Z" fill="#074E16"/>
<path id="Vector_82" d="M49.3138 1.73828C49.5373 1.79825 49.7279 1.8205 49.8876 1.90465C49.9708 1.94818 50.0482 2.10488 50.0376 2.19967C50.0269 2.29349 49.9069 2.44245 49.8256 2.44825C49.4531 2.47824 49.0767 2.48114 48.7042 2.45793C48.622 2.45309 48.4962 2.30897 48.4855 2.21708C48.4739 2.12132 48.5513 1.95301 48.6326 1.91916C48.8581 1.82824 49.1048 1.79051 49.3138 1.73828Z" fill="#074E16"/>
<path id="Vector_83" d="M82.8484 86.6717C82.8378 86.6166 82.8039 86.5518 82.8213 86.5073C83.0129 86.0198 83.3138 85.6348 83.8586 85.5323C83.9331 85.5178 84.115 85.659 84.114 85.7267C84.1082 86.2065 83.4676 86.8042 82.9887 86.7955C82.9403 86.7946 82.8948 86.7153 82.8484 86.6717Z" fill="#074E16"/>
<path id="Vector_84" d="M16.0325 85.8836C15.9744 85.8923 15.9125 85.9204 15.8612 85.9068C15.3929 85.7869 15.119 85.4358 14.8936 85.0469C14.8472 84.9666 14.8772 84.7858 14.942 84.7122C15.0097 84.6358 15.1994 84.5672 15.269 84.6078C15.6532 84.8341 16.0131 85.1069 16.1524 85.5576C16.1795 85.6457 16.076 85.7743 16.0325 85.8836Z" fill="#074E16"/>
<path id="Vector_85" d="M56.0036 99.5526C55.8875 99.5071 55.6997 99.4655 55.5575 99.363C55.4917 99.3156 55.4607 99.0805 55.5053 99.0448C55.6456 98.9326 55.8226 98.832 55.9978 98.8039C56.7409 98.6869 57.1976 98.8484 57.0495 99.1492C56.8376 99.5806 56.4274 99.4868 56.0036 99.5526Z" fill="#074E16"/>
<path id="Vector_86" d="M86.0717 83.669C86.0717 83.7899 86.122 83.9524 86.063 84.0182C85.8134 84.2996 85.5425 84.5637 85.2551 84.8055C85.1922 84.8587 84.9967 84.8297 84.9203 84.7678C84.8506 84.7107 84.8061 84.5318 84.8439 84.4515C85.0354 84.0433 85.3189 83.7028 85.7573 83.5461C85.8376 83.5162 85.9682 83.6255 86.0717 83.669Z" fill="#074E16"/>
<path id="Vector_87" d="M39.9713 98.8211C39.5978 98.794 39.202 98.8162 38.9282 98.4999C38.875 98.438 38.8837 98.2223 38.9389 98.1836C39.3665 97.8819 40.1638 98.0231 40.4338 98.4274C40.5296 98.5715 40.4909 98.6731 40.3264 98.7234C40.2083 98.7572 40.0893 98.7882 39.9713 98.8211Z" fill="#074E16"/>
<path id="Vector_88" d="M26.2503 93.0586C26.7021 93.0702 27.0814 93.2772 27.3359 93.6786C27.3804 93.7492 27.3407 93.9398 27.273 94.0046C27.0485 94.2193 26.7931 94.0965 26.5725 93.9833C26.2938 93.8401 25.9774 93.6941 25.9948 93.3072C25.9977 93.2259 26.1496 93.1515 26.2503 93.0586Z" fill="#074E16"/>
<path id="Vector_89" d="M75.287 92.5929C75.2541 93.0166 74.7422 93.3735 74.153 93.3745C74.1007 93.3745 74.0175 93.3213 74.003 93.2758C73.9691 93.1714 73.9169 93.0214 73.9643 92.9508C74.2197 92.563 74.569 92.2979 75.0615 92.3453C75.1438 92.3531 75.2125 92.5069 75.287 92.5929Z" fill="#074E16"/>
<path id="Vector_90" d="M13.4108 19.1055C13.256 19.6018 12.9493 19.978 12.4403 20.1705C12.3891 20.1899 12.2846 20.1821 12.2652 20.1502C12.2052 20.0525 12.1152 19.919 12.1414 19.83C12.273 19.3803 12.6 19.0727 12.9909 18.8434C13.0625 18.8018 13.2183 18.884 13.3257 18.9314C13.3654 18.9498 13.376 19.032 13.4108 19.1055Z" fill="#074E16"/>
<path id="Vector_91" d="M85.7803 17.7305C85.9013 17.744 86.0648 17.7121 86.1335 17.7788C86.4064 18.04 86.6608 18.3224 86.8931 18.6204C86.9414 18.6823 86.8998 18.8796 86.8321 18.9492C86.7644 19.0189 86.5786 19.0643 86.5041 19.0198C86.119 18.7906 85.7668 18.5091 85.6478 18.0497C85.6246 17.9607 85.732 17.8378 85.7803 17.7305Z" fill="#074E16"/>
<path id="Vector_92" d="M15.0047 16.6738C15.1053 16.757 15.2688 16.8315 15.2659 16.9002C15.2495 17.408 14.6215 18.0096 14.1638 17.9584C14.099 17.9506 13.9877 17.7485 14.0109 17.672C14.1687 17.172 14.4986 16.8276 15.0047 16.6738Z" fill="#074E16"/>
<path id="Vector_93" d="M1.92296 55.9183C1.90651 56.0537 1.91909 56.192 1.86684 56.2975C1.82233 56.3884 1.70332 56.4967 1.61527 56.4986C1.51561 56.5006 1.38789 56.4135 1.31919 56.3284C1.24565 56.2375 1.20501 56.1059 1.18566 55.986C1.07826 55.3041 1.27758 54.7875 1.57947 54.9413C2.01585 55.1648 1.86684 55.5807 1.92296 55.9183Z" fill="#074E16"/>
<path id="Vector_94" d="M85.0563 16.7974C84.9489 16.9144 84.856 17.0798 84.799 17.0682C84.2532 16.9551 83.9397 16.5711 83.7385 16.0797C83.7182 16.0304 83.724 15.9278 83.7549 15.9075C83.8536 15.8427 84.0017 15.7363 84.0752 15.7702C84.5493 15.983 84.9276 16.3002 85.0563 16.7974Z" fill="#074E16"/>
<path id="Vector_95" d="M83.0436 14.9012C82.9497 14.9776 82.8558 15.1159 82.7765 15.1082C82.284 15.0588 82.0189 14.6816 81.7615 14.3208C81.7034 14.2386 81.6967 14.0645 81.7451 13.9736C81.8641 13.7472 82.0837 13.8149 82.2347 13.9184C82.5956 14.1661 83.001 14.3905 83.0436 14.9012Z" fill="#074E16"/>
<path id="Vector_96" d="M98.207 54.2195C98.237 54.0367 98.2419 53.8452 98.3077 53.6759C98.3425 53.585 98.477 53.4883 98.5757 53.4776C98.6705 53.467 98.834 53.5376 98.8689 53.6169C99.0527 54.0309 99.043 54.4555 98.8021 54.8463C98.7508 54.9295 98.5979 55.003 98.5022 54.9914C98.4141 54.9808 98.2961 54.8637 98.2699 54.7699C98.2186 54.5958 98.2244 54.4052 98.207 54.2195Z" fill="#074E16"/>
<path id="Vector_97" d="M19.2314 13.2476C19.1434 13.7767 18.5299 14.3193 18.049 14.2622C17.9832 14.2545 17.8661 14.0359 17.8952 13.9653C18.0993 13.4778 18.4486 13.1276 18.9876 13.0319C19.0534 13.0203 19.1492 13.1721 19.2314 13.2476Z" fill="#074E16"/>
<path id="Vector_98" d="M32.3863 5.77516C32.2982 5.69198 32.1705 5.62427 32.1424 5.52851C32.1144 5.43178 32.1502 5.27508 32.2179 5.19867C32.4869 4.89301 32.8613 4.83691 33.2416 4.86013C33.3364 4.86593 33.4806 4.96556 33.5019 5.04874C33.5271 5.1445 33.4729 5.3012 33.3984 5.37568C33.1236 5.65329 32.7694 5.76259 32.3863 5.77516Z" fill="#074E16"/>
<path id="Vector_99" d="M59.9692 2.86523C60.3301 2.90586 60.7269 2.8633 61.0113 3.16702C61.0858 3.24634 61.112 3.37982 61.1323 3.49299C61.1381 3.52491 61.0539 3.59939 60.9997 3.61293C60.4956 3.74254 60.0108 3.70579 59.5909 3.37208C59.5116 3.30921 59.4874 3.16509 59.4651 3.05385C59.4593 3.02483 59.5474 2.95712 59.6025 2.93971C59.7186 2.90392 59.8415 2.88942 59.9692 2.86523Z" fill="#074E16"/>
<path id="Vector_100" d="M99.0835 48.7122C99.0071 48.9608 98.9549 49.2036 98.8513 49.4212C98.8233 49.4802 98.5814 49.5199 98.5359 49.4735C98.1701 49.0972 98.1605 48.2547 98.5185 47.9297C98.5669 47.8862 98.802 47.9403 98.8368 48.0081C98.9461 48.2238 99.0013 48.4656 99.0835 48.7122Z" fill="#074E16"/>
<path id="Vector_101" d="M36.2665 4.06374C36.2423 4.174 36.2539 4.32393 36.1862 4.3868C35.9065 4.64506 35.5708 4.80563 35.1789 4.76791C35.0744 4.75823 34.9689 4.66924 34.8828 4.59477C34.8538 4.56962 34.8635 4.46418 34.8915 4.41679C35.1257 4.01537 35.6869 3.80064 36.1455 3.93799C36.1929 3.9525 36.2258 4.02021 36.2665 4.06374Z" fill="#074E16"/>
<path id="Vector_102" d="M8.43281 25.9978C8.37476 26.1613 8.33218 26.3451 8.24607 26.5047C8.10287 26.7707 7.99449 27.1024 7.60939 27.0908C7.53102 27.0879 7.39169 26.9399 7.39072 26.8567C7.38395 26.2967 7.74679 25.7898 8.17447 25.7618C8.24897 25.7579 8.33412 25.904 8.43281 25.9978Z" fill="#074E16"/>
<path id="Vector_103" d="M12.3443 81.5171C12.2485 81.5732 12.1305 81.696 12.0608 81.6728C11.5974 81.519 11.2229 80.9841 11.279 80.5566C11.2877 80.4908 11.4861 80.3796 11.5606 80.4038C12.0608 80.5614 12.385 81.0422 12.3443 81.5171Z" fill="#074E16"/>
<path id="Vector_104" d="M93.9424 72.5255C93.8979 72.6841 93.8737 72.8747 93.7924 73.0362C93.6531 73.3119 93.506 73.605 93.1267 73.6059C92.8625 73.6069 92.8664 73.1397 93.1567 72.6599C93.2496 72.5071 93.3918 72.3814 93.5253 72.2576C93.5621 72.2237 93.6705 72.2121 93.7034 72.2411C93.7895 72.3117 93.8505 72.4114 93.9424 72.5255Z" fill="#074E16"/>
<path id="Vector_105" d="M1.80972 53.057C1.77489 53.2911 1.78263 53.4313 1.72844 53.5397C1.67813 53.6393 1.57169 53.7254 1.4701 53.7805C1.32302 53.8608 1.23304 53.7902 1.17208 53.6345C1.02404 53.2621 1.04532 52.8809 1.11015 52.5027C1.1266 52.4051 1.24174 52.259 1.31818 52.2542C1.41494 52.2484 1.56879 52.3431 1.6104 52.4341C1.71296 52.6614 1.76618 52.9109 1.80972 53.057Z" fill="#074E16"/>
<path id="Vector_106" d="M54.3461 99.367C53.8759 99.7549 53.4918 99.7201 53.1183 99.6872C53.0118 99.6785 52.8512 99.5982 52.8212 99.5131C52.7225 99.2374 52.9722 99.2103 53.1396 99.191C53.5092 99.1474 53.8923 99.07 54.3461 99.367Z" fill="#FAAF3B"/>
<path id="Vector_107" d="M3.11093 38.9083C3.06158 39.1511 3.03642 39.4713 2.92031 39.7537C2.86419 39.8901 2.63584 39.9549 2.4849 40.0526C2.42297 39.9481 2.30299 39.8408 2.3088 39.7402C2.32525 39.4297 2.3504 39.1086 2.45394 38.8203C2.50232 38.6849 2.73744 38.6153 2.88742 38.5156C2.94741 38.622 3.00836 38.7284 3.11093 38.9083Z" fill="#074E16"/>
<path id="Vector_108" d="M26.1042 8.57886C25.9039 9.0122 25.3631 9.37009 24.9441 9.31882C24.8822 9.31108 24.7748 9.10796 24.8009 9.03251C24.9586 8.56242 25.4279 8.27708 25.931 8.34091C25.9988 8.34962 26.0491 8.49955 26.1042 8.57886Z" fill="#074E16"/>
<path id="Vector_109" d="M3.25472 37.231C3.21505 37.1807 3.15796 37.1353 3.13958 37.0782C2.98476 36.5849 3.10862 36.1641 3.47243 35.9126C3.62047 35.8111 3.71433 35.8449 3.77238 36.0132C3.90785 36.404 3.85656 36.7677 3.58661 37.0792C3.515 37.1643 3.36793 37.1827 3.25472 37.231Z" fill="#074E16"/>
<path id="Vector_110" d="M86.8399 82.8235C86.7935 82.7829 86.7122 82.7461 86.7083 82.7016C86.6986 82.5865 86.6841 82.4414 86.7412 82.3554C86.9667 82.0139 87.1369 81.5864 87.6546 81.5999C87.6952 81.6009 87.7581 81.6831 87.7688 81.7353C87.8559 82.1658 87.5501 82.6049 87.0073 82.8313C86.9608 82.8516 86.896 82.8274 86.8399 82.8235Z" fill="#074E16"/>
<path id="Vector_111" d="M19.9231 89.3171C19.6986 89.2243 19.4489 89.1653 19.2583 89.026C19.1374 88.937 19.0067 88.6836 19.0522 88.5791C19.1887 88.2667 19.4664 88.3943 19.6618 88.5249C19.8611 88.6574 20.0159 88.8577 20.1901 89.0279C20.1011 89.1246 20.0121 89.2204 19.9231 89.3171Z" fill="#074E16"/>
<path id="Vector_112" d="M1.70248 44.0547C1.74119 44.1011 1.79731 44.1417 1.81763 44.1949C1.95115 44.549 1.97051 44.8962 1.7199 45.2125C1.70539 45.2319 1.62217 45.2299 1.60669 45.2106C1.34931 44.8788 1.44414 44.5345 1.5854 44.193C1.60766 44.1398 1.66281 44.1001 1.70248 44.0547Z" fill="#FAAF3B"/>
<path id="Vector_113" d="M16.7748 15.4784C16.6771 15.6245 16.5958 15.785 16.4777 15.9127C16.3461 16.0559 16.1536 16.0888 16.0085 15.9534C15.8459 15.8015 15.9523 15.6361 16.0772 15.5103C16.201 15.3856 16.3442 15.2792 16.4797 15.1641C16.5784 15.2695 16.6771 15.374 16.7748 15.4784Z" fill="#074E16"/>
<path id="Vector_114" d="M16.5 15.1626C16.6626 14.9469 16.9238 14.7515 17.1105 14.9779C17.3457 15.2632 16.978 15.3532 16.7932 15.476C16.6974 15.3715 16.5987 15.2671 16.5 15.1626Z" fill="#074E16"/>
<path id="Vector_115" d="M20.1733 89.0312C20.2972 89.1328 20.4433 89.2605 20.3039 89.4104C20.1694 89.5545 20.0195 89.4414 19.9062 89.3195C19.9953 89.2237 20.0843 89.128 20.1733 89.0312Z" fill="#074E16"/>
<path id="Vector_116" d="M62.0588 64.7791C61.22 65.6679 60.0958 66.0228 58.9706 66.2714C55.9531 66.9387 52.9472 66.7066 49.9926 65.8806C48.9525 65.5895 47.8467 65.2801 47.4491 64.0489C47.7838 59.4047 47.4926 54.8049 46.4671 50.2565C46.2591 49.3357 46.261 49.3377 45.4039 49.2361C45.0217 49.1916 44.6405 49.1452 44.2603 49.0862C41.623 48.6742 39.4752 46.1074 39.7858 43.028C39.9628 41.2698 40.9003 40.2146 42.6418 39.9177C43.5918 39.7552 44.5564 39.6759 45.5026 39.497C48.1689 38.9931 50.7249 38.1517 53.1436 36.908C53.5993 36.6739 54.0791 36.4882 54.5474 36.2803C54.618 36.4795 54.7689 36.5849 54.9702 36.5859C55.7354 36.5927 56.5007 36.5898 57.266 36.5869C57.3937 36.5859 57.5301 36.5937 57.6452 36.5511C57.7468 36.5134 57.9113 36.3847 57.8977 36.3403C57.8484 36.172 57.7594 35.905 57.6472 35.8838C57.1508 35.7919 56.641 35.7619 56.135 35.731C55.8622 35.7145 55.6445 35.6468 55.54 35.3702C58.2286 33.7212 60.2632 31.4417 61.9079 28.7849C62.1778 28.3488 62.4226 27.8961 62.6925 27.459C62.8115 27.2665 63.0311 27.2627 63.1985 27.3487C63.4229 27.4658 63.63 27.6282 63.8215 27.7965C65.4362 29.224 66.7452 30.904 67.5376 32.9011C70.0346 39.1953 70.2697 45.5329 67.6266 51.8561C66.6552 54.1792 65.1837 56.0893 62.7534 57.0622C62.1043 57.3224 61.9282 57.7683 61.9446 58.4153C61.9998 60.5372 62.023 62.6581 62.0588 64.7791ZM65.7623 39.614L65.7671 39.6189C65.9229 39.2388 65.7342 38.9999 65.4111 38.8684C65.0231 38.7107 64.6361 38.7755 64.3527 39.0918C63.6783 39.8433 63.7286 40.9951 64.4601 41.7021C64.7039 41.9381 65.0115 42.0338 65.3462 41.912C66.2344 41.586 66.4279 40.5096 65.7623 39.614ZM64.5587 45.4498C63.4868 45.4536 62.4158 45.4585 61.3438 45.4604C60.4538 45.4623 59.6005 45.5958 58.8584 46.1374C58.6204 46.2544 58.4173 46.4111 58.4095 46.6993C58.3728 48.1858 59.6276 50.0021 61.0043 50.3774C61.9775 50.6424 62.8415 50.4934 63.6425 49.7361C64.7522 48.6878 65.0667 47.3599 65.236 45.9595C65.2834 45.5707 64.8867 45.4894 64.5587 45.4498ZM58.0545 40.5909C58.0438 40.4642 58.0409 40.3365 58.0206 40.2108C57.919 39.5841 57.4614 39.0492 56.9777 38.9873C56.4688 38.9216 55.867 39.528 55.7461 40.233C55.7248 40.3578 55.7103 40.4854 55.7122 40.6121C55.7258 41.4739 56.3972 42.294 57.0222 42.2166C57.6152 42.1441 58.069 41.4274 58.0545 40.5909ZM66.3573 35.9892C65.4827 35.4805 64.6506 35.3103 63.7586 35.5598C63.4771 35.6391 63.1288 35.6681 63.0524 36.0704C62.9992 36.3509 63.3542 36.4815 63.9666 36.3935C64.343 36.3393 64.7222 36.2919 65.0947 36.2145C65.4798 36.1352 65.9374 36.4196 66.3573 35.9892ZM62.5125 43.1248C62.4642 42.646 62.0336 42.1605 61.5489 42.1199C61.4154 42.1093 61.1871 42.2785 61.1368 42.4149C60.9685 42.8743 61.1455 43.2824 61.4677 43.617C61.6486 43.8047 61.8895 43.9033 62.143 43.7389C62.3606 43.5977 62.5116 43.4023 62.5125 43.1248Z" fill="#FDCEC8"/>
<path id="Vector_117" d="M55.565 35.375C55.6695 35.6516 55.8872 35.7193 56.1601 35.7358C56.6661 35.7667 57.1761 35.7958 57.6724 35.8886C57.7847 35.9099 57.8737 36.1769 57.923 36.3452C57.9366 36.3897 57.7721 36.5183 57.6705 36.556C57.5553 36.5986 57.4189 36.5918 57.2912 36.5918C56.5258 36.5947 55.7605 36.5976 54.9951 36.5909C54.7938 36.5889 54.6429 36.4835 54.5723 36.2852C54.6429 35.6971 55.0522 35.4795 55.565 35.375Z" fill="#43434C"/>
<path id="Vector_118" d="M64.5609 45.4453C64.889 45.485 65.2857 45.5662 65.2383 45.9551C65.0689 47.3557 64.7545 48.6837 63.6446 49.7322C62.8435 50.4896 61.9794 50.6376 61.006 50.3735C59.6291 49.9992 58.3742 48.1817 58.4109 46.695C58.4177 46.4068 58.6219 46.2501 58.8599 46.133C61.2063 47.6149 62.9073 47.4098 64.5609 45.4453Z" fill="#FF908D"/>
<path id="Vector_119" d="M64.5409 45.4453C62.8873 47.4098 61.1853 47.6149 58.8398 46.134C59.583 45.5923 60.4354 45.4589 61.3256 45.4569C62.3977 45.454 63.4698 45.4492 64.5409 45.4453Z" fill="white"/>
<path id="Vector_120" d="M58.0673 40.5793C58.0818 41.416 57.628 42.1328 57.0349 42.2053C56.4098 42.2817 55.7383 41.4624 55.7248 40.6006C55.7229 40.4739 55.7364 40.3462 55.7587 40.2214C55.8796 39.5163 56.4814 38.9098 56.9904 38.9756C57.4742 39.0385 57.9319 39.5724 58.0335 40.1992C58.0538 40.3249 58.0567 40.4526 58.0673 40.5793Z" fill="#43434C"/>
<path id="Vector_121" d="M65.7602 39.608C66.4259 40.5037 66.2333 41.5813 65.3432 41.9063C65.0084 42.0281 64.7007 41.9324 64.4569 41.6964C63.7263 40.9893 63.676 39.8373 64.3494 39.0857C64.633 38.7694 65.02 38.7036 65.408 38.8623C65.7302 38.9938 65.9198 39.2327 65.7641 39.6129C65.646 39.6284 65.5164 39.6196 65.4148 39.668C65.3306 39.7086 65.2193 39.8257 65.228 39.8944C65.2387 39.9795 65.3548 40.0984 65.4399 40.112C65.5173 40.1236 65.646 40.0327 65.6925 39.9524C65.7486 39.8566 65.7408 39.7241 65.7602 39.608Z" fill="#43434C"/>
<path id="Vector_122" d="M66.371 35.9902C65.9511 36.4207 65.4934 36.1373 65.1083 36.2156C64.7358 36.292 64.3575 36.3404 63.9801 36.3945C63.3676 36.4826 63.0116 36.352 63.0657 36.0715C63.1422 35.6691 63.4905 35.6401 63.7721 35.5608C64.6632 35.3112 65.4963 35.4814 66.371 35.9902Z" fill="#43434C"/>
<path id="Vector_123" d="M62.5339 43.1168C62.5339 43.3954 62.382 43.5898 62.1653 43.731C61.9117 43.8954 61.6708 43.7968 61.4899 43.6091C61.1677 43.2745 60.9896 42.8663 61.159 42.4068C61.2093 42.2704 61.4376 42.1012 61.5712 42.1118C62.0559 42.1524 62.4865 42.638 62.5339 43.1168Z" fill="#FF908D"/>
<path id="Vector_124" d="M65.7504 39.6191C65.7311 39.7362 65.7388 39.8687 65.6837 39.9645C65.6372 40.0447 65.5085 40.1357 65.4311 40.1241C65.346 40.1105 65.2308 39.9915 65.2192 39.9064C65.2105 39.8368 65.3208 39.7207 65.406 39.6801C65.5076 39.6307 65.6372 39.6404 65.7553 39.6249C65.7553 39.623 65.7504 39.6191 65.7504 39.6191Z" fill="#3A7373"/>
</g>
</g>
</svg>
